:SAMPLES-PER-SECOND 30
:FULLY-SPECIFIED
:DEGREES
250
root  -82.593 39.9846 1.89474 134.921 88.1548 134.414
RightUpLeg  -2.53154 -8.44294 -2.67732
RightLeg  20.2505 0.732539 -0.373797
RightFoot  -17.156 -0.165331 -0.970759
RightToes  -3.31784e-009 0 -3.6325e-017
Spine  11.0671 1.56969 11.7584
Spine1  0.485484 3.8265 -5.6798
HEad  -4.30832 -20.484 -4.8656
LeftShoulder1  -0.633921 5.15237 -32.3208
LeftArm  2.52575 18.5125 -41.4295
LeftForeArm  21.8272 -20.3083 -4.38323
LeftHand  -0.0686431 7.44567 -1.455
RightShoulder  -1.18899 -6.74925 30.1258
RightArm  13.4453 10.7603 44.4005
RightForeArm  8.9945 18.8292 4.47645
RightHand  -0.252342 5.13112 -3.08697
LeftUpLeg  -25.2435 3.72209 -0.193474
LeftLeg  46.1203 -2.19075 -2.04713
LeftFoot  -2.2984 0.254873 -3.04198
LeftToes  1.28511e-009 -3.60458e-011 6.16399e-011
251
root  -82.1392 40.0775 1.88669 127.389 87.1743 126.72
RightUpLeg  -1.29984 -9.05892 -3.84617
RightLeg  19.1096 0.957182 -0.324431
RightFoot  -17.1377 -0.170909 -1.08634
RightToes  -3.31784e-009 0 -3.6325e-017
Spine  10.5092 1.68573 11.14
Spine1  0.993851 3.89352 -6.44177
HEad  -4.33791 -19.8723 -4.55466
LeftShoulder1  -0.639519 5.16898 -32.2559
LeftArm  3.1793 19.0451 -41.2508
LeftForeArm  21.5742 -20.2815 -4.44295
LeftHand  -0.0739272 7.87502 -1.35247
RightShoulder  -1.17424 -6.77995 29.3318
RightArm  12.3559 13.1797 46.2046
RightForeArm  9.09829 21.6115 4.33015
RightHand  -0.30348 4.89346 -3.72371
LeftUpLeg  -26.0571 3.70676 -1.37891
LeftLeg  40.3946 -1.65806 -1.14396
LeftFoot  -3.12838 0.207539 -2.63665
LeftToes  1.28511e-009 -3.60458e-011 6.16399e-011
252
root  -81.6601 40.1599 1.88138 125.891 86.495 125.232
RightUpLeg  0.427162 -9.46988 -4.71077
RightLeg  17.41 1.04389 -0.275817
RightFoot  -17.1377 -0.1629 -0.928498
RightToes  -3.31784e-009 0 -3.6325e-017
Spine  10.802 1.86051 10.704
Spine1  0.276591 4.06278 -7.35569
HEad  -4.21486 -20.1555 -4.26059
LeftShoulder1  -0.466883 4.72218 -32.1813
LeftArm  1.59205 19.564 -41.0905
LeftForeArm  23.397 -18.8858 -4.82361
LeftHand  -0.0761814 7.88399 -1.42205
RightShoulder  -1.15527 -6.75322 29.0434
RightArm  10.9892 14.6463 46.9623
RightForeArm  9.93018 24.4412 4.69148
RightHand  -0.331083 4.53716 -4.15503
LeftUpLeg  -25.9528 3.2512 -1.95324
LeftLeg  32.9628 -0.930261 -0.318171
LeftFoot  -3.37289 0.225457 -2.93868
LeftToes  1.28511e-009 -3.60458e-011 6.16399e-011
253
root  -81.1274 40.2012 1.82913 123.595 86.0485 122.649
RightUpLeg  1.89756 -9.86752 -5.50711
RightLeg  15.6592 1.29671 -0.120338
RightFoot  -17.217 -0.156211 -0.773705
RightToes  -3.31784e-009 0 -3.6325e-017
Spine  10.3701 1.8577 10.3988
Spine1  0.551157 4.10783 -8.34528
HEad  -4.7409 -19.931 -3.42094
LeftShoulder1  -0.517277 4.85584 -32.0378
LeftArm  1.08157 19.9002 -41.0031
LeftForeArm  23.7227 -18.2603 -5.05488
LeftHand  -0.108026 9.32978 -1.52682
RightShoulder  -1.1199 -6.693 28.5843
RightArm  11.2658 16.522 47.9684
RightForeArm  10.0025 27.0039 5.28106
RightHand  -0.344732 4.69325 -4.25669
LeftUpLeg  -25.5702 2.61591 -2.25829
LeftLeg  24.7986 -0.152754 0.269842
LeftFoot  -2.34075 0.265106 -3.20099
LeftToes  1.28511e-009 -3.60458e-011 6.16399e-011
254
root  -80.5215 40.1942 1.7579 118.426 86.4231 117.361
RightUpLeg  3.37959 -9.84946 -5.67063
RightLeg  14.4119 1.90026 0.0096211
RightFoot  -17.3454 -0.147344 -0.575566
RightToes  -3.31784e-009 0 -3.6325e-017
Spine  10.5 2.04251 9.81923
Spine1  0.151408 4.15111 -8.03982
HEad  -5.02395 -13.6662 -4.01689
LeftShoulder1  -0.798248 5.56916 -32.4955
LeftArm  0.217718 19.8855 -40.6165
LeftForeArm  24.7768 -17.0253 -5.49923
LeftHand  -0.111977 9.60816 -1.55418
RightShoulder  -1.01626 -6.44868 27.9706
RightArm  12.3451 17.7181 48.6006
RightForeArm  10.9249 29.4194 5.79551
RightHand  -0.389864 5.43197 -4.4916
LeftUpLeg  -24.8176 3.0682 -1.91642
LeftLeg  17.3988 -0.076518 0.272496
LeftFoot  -0.964818 0.295637 -3.17956
LeftToes  1.28511e-009 -3.60458e-011 6.16399e-011
255
root  -79.8643 40.1293 1.6734 110.636 86.8968 109.483
RightUpLeg  4.91962 -9.67975 -5.7473
RightLeg  13.1895 2.44074 0.0508088
RightFoot  -17.7789 -0.124463 -0.0689453
RightToes  -3.31784e-009 0 -3.6325e-017
Spine  9.62245 2.33114 9.70695
Spine1  1.41292 4.60082 -8.62883
HEad  -8.41737 -1.10899 -6.02803
LeftShoulder1  -0.681892 5.29566 -31.9034
LeftArm  -2.26784 19.8792 -41.2119
LeftForeArm  26.5171 -15.5266 -5.83149
LeftHand  -0.0962129 8.99329 -1.4075
RightShoulder  -1.03268 -6.48822 28.0657
RightArm  13.5506 19.0795 49.174
RightForeArm  11.8676 31.0472 6.13891
RightHand  -0.401628 5.65529 -4.53667
LeftUpLeg  -24.2146 3.24472 -1.27478
LeftLeg  12.3956 0.404219 0.217166
LeftFoot  -0.228281 0.388394 -3.9875
LeftToes  1.28511e-009 -3.60458e-011 6.16399e-011
256
root  -79.0844 39.9722 1.53354 100.878 87.3769 100.05
RightUpLeg  6.82032 -9.7548 -6.02395
RightLeg  12.6904 3.21864 0.143194
RightFoot  -18.6866 -0.118244 0.11974
RightToes  -3.31784e-009 0 -3.6325e-017
Spine  9.22247 2.42563 8.99839
Spine1  2.11966 4.66448 -8.34098
HEad  -8.06927 -1.53988 -5.12407
LeftShoulder1  -0.634284 5.17427 -31.8266
LeftArm  -3.04866 20.3427 -41.0212
LeftForeArm  26.9327 -14.9769 -5.93241
LeftHand  -0.111746 9.50675 -1.60448
RightShoulder  -0.94184 -6.21342 28.189
RightArm  14.7386 19.5222 49.6865
RightForeArm  12.566 31.8323 6.29745
RightHand  -0.401458 5.81969 -4.47773
LeftUpLeg  -23.3105 3.46793 -0.574036
LeftLeg  10.2043 1.02312 0.0316851
LeftFoot  -0.606904 0.376664 -3.96011
LeftToes  1.28511e-009 -3.60458e-011 6.16399e-011
257
root  -78.1693 39.7317 1.33159 94.6708 87.6639 94.2753
RightUpLeg  8.96386 -10.0035 -6.61893
RightLeg  12.5774 4.03437 0.270132
RightFoot  -20.1119 -0.0784377 0.749619
RightToes  -3.31784e-009 0 -3.6325e-017
Spine  8.85944 2.4562 8.29432
Spine1  2.41725 4.62322 -7.95045
HEad  -7.42617 -1.55989 -4.51662
LeftShoulder1  -0.615826 5.1062 -32.2764
LeftArm  -2.97736 20.5215 -40.0128
LeftForeArm  27.7561 -14.3252 -6.18644
LeftHand  -0.121315 9.59882 -1.82809
RightShoulder  -0.904677 -6.12861 27.8954
RightArm  15.6179 18.3432 50.1064
RightForeArm  12.484 32.419 6.45127
RightHand  -0.408552 5.49612 -4.66622
LeftUpLeg  -22.4401 3.67087 -0.537217
LeftLeg  10.6893 1.94924 0.314131
LeftFoot  -0.400642 0.211713 -2.15707
LeftToes  1.28511e-009 -3.60458e-011 6.16399e-011
258
root  -77.18 39.4917 1.10153 78.8172 87.5221 78.7459
RightUpLeg  10.9174 -9.81391 -7.47346
RightLeg  12.6605 4.82958 0.0870457
RightFoot  -21.4159 -0.0189516 1.43791
RightToes  -3.31784e-009 0 -3.6325e-017
Spine  7.80709 2.49564 7.03612
Spine1  3.4825 4.62794 -7.7062
HEad  -7.06904 -1.10332 -4.22886
LeftShoulder1  -0.673983 5.25296 -32.387
LeftArm  -4.34445 20.3888 -39.5861
LeftForeArm  29.8675 -13.2135 -6.33322
LeftHand  -0.128917 9.01784 -2.41138
RightShoulder  -1.01554 -6.4476 27.9463
RightArm  17.9894 17.6205 51.1679
RightForeArm  11.4319 31.5163 6.28135
RightHand  -0.43506 5.8793 -4.8
LeftUpLeg  -21.594 4.5629 -1.00495
LeftLeg  12.2863 3.09586 0.738354
LeftFoot  2.20858 0.0211033 -0.476909
LeftToes  1.28511e-009 -3.60458e-011 6.16399e-011
259
root  -76.1794 39.2915 0.866461 64.6558 86.9109 65.0656
RightUpLeg  12.9942 -8.67367 -8.27685
RightLeg  12.5593 4.63318 -0.608695
RightFoot  -22.2975 0.0827986 2.42551
RightToes  -3.31784e-009 0 -3.6325e-017
Spine  7.83108 2.55784 5.12663
Spine1  3.31618 4.58351 -7.53703
HEad  -6.52598 -0.167412 -3.56092
LeftShoulder1  -0.762388 5.46823 -32.6042
LeftArm  -3.48907 20.5839 -38.5164
LeftForeArm  29.3017 -13.0459 -6.59571
LeftHand  -0.132882 9.47383 -2.18108
RightShoulder  -1.03826 -6.45964 28.5959
RightArm  19.8701 15.1938 50.9895
RightForeArm  11.0195 30.8908 6.15119
RightHand  -0.452235 5.88105 -4.98665
LeftUpLeg  -21.1172 7.09873 -2.07058
LeftLeg  14.638 1.96627 0.51576
LeftFoot  6.28033 -0.339088 1.99523
LeftToes  1.28511e-009 -3.60458e-011 6.16399e-011
260
root  -75.1643 39.0555 0.605896 80.2619 86.0209 81.2702
RightUpLeg  14.3584 -6.68588 -9.50515
RightLeg  14.7615 2.58643 -0.916802
RightFoot  -23.4175 0.329885 4.59718
RightToes  -3.31784e-009 0 -3.6325e-017
Spine  7.63659 2.12022 1.7606
Spine1  3.58429 3.64999 -5.90102
HEad  -6.99325 1.82933 -3.64393
LeftShoulder1  -0.928622 5.85136 -33.3893
LeftArm  -3.84918 19.3168 -37.5367
LeftForeArm  29.7556 -11.9956 -6.90251
LeftHand  -0.155537 9.96489 -2.45785
RightShoulder  -0.991295 -6.28584 29.0536
RightArm  21.5339 12.8147 51.3501
RightForeArm  11.0333 28.5117 5.5636
RightHand  -0.396785 4.91205 -4.77376
LeftUpLeg  -21.4899 6.60686 -3.75503
LeftLeg  19.7792 1.53215 0.988845
LeftFoot  3.02368 -0.291257 2.20075
LeftToes  1.28511e-009 -3.60458e-011 6.16399e-011
261
root  -74.2154 38.9146 0.349164 87.5891 85.4459 89.383
RightUpLeg  14.7815 -2.48313 -9.65306
RightLeg  18.8517 -0.830937 -0.858502
RightFoot  -23.3108 0.788481 9.05831
RightToes  -3.31784e-009 0 -3.6325e-017
Spine  7.93439 2.0576 -0.0715783
Spine1  4.00193 3.44665 -5.79719
HEad  -5.40496 -1.32817 -2.44848
LeftShoulder1  -0.823749 5.6024 -33.0868
LeftArm  -6.15441 17.0221 -38.0806
LeftForeArm  31.2386 -9.77671 -7.00662
LeftHand  -0.153558 10.4459 -2.11197
RightShoulder  -1.15544 -6.65251 30.1863
RightArm  22.5437 9.78778 50.876
RightForeArm  10.1703 25.2426 4.87198
RightHand  -0.277952 5.26482 -3.33639
LeftUpLeg  -20.7155 5.05777 -4.61646
LeftLeg  22.9972 2.58758 1.53338
LeftFoot  0.755386 -0.401675 3.72104
LeftToes  1.28511e-009 -3.60458e-011 6.16399e-011
262
root  -73.412 38.9461 0.0800582 76.962 84.8236 79.3378
RightUpLeg  13.2281 0.829996 -10.1278
RightLeg  24.8888 -1.67563 -1.01278
RightFoot  -21.0497 1.09863 14.8024
RightToes  -3.31784e-009 0 -3.6325e-017
Spine  8.36487 2.28591 -1.43319
Spine1  4.4922 3.58603 -6.61499
HEad  -5.42818 -0.54388 -2.70365
LeftShoulder1  -0.85058 5.67048 -33.0908
LeftArm  -7.80992 14.9209 -38.7288
LeftForeArm  32.2157 -8.86191 -6.60665
LeftHand  -0.134891 9.81878 -2.02355
RightShoulder  -1.19008 -6.69565 30.7697
RightArm  23.7516 7.27993 51.1784
RightForeArm  8.64805 19.846 4.9707
RightHand  -0.235893 4.5565 -3.04451
LeftUpLeg  -18.9876 5.71829 -5.35846
LeftLeg  23.7938 3.03106 1.80136
LeftFoot  -1.32881 -0.305902 3.57719
LeftToes  1.28511e-009 -3.60458e-011 6.16399e-011
